<svg version="1.1" xmlns="http://www.w3.org/2000/svg" x="0px" y="0px" viewBox="0 0 181.314 20" enable-background="new 0 0 181.314 20" xml:space="preserve" style="fill:#000000;">
	<g>
		<path d="M0.001,0.306h11.817c5.455,0,7.071,2.741,7.071,5.179c0,2.132-0.707,3.248-2.627,4.061
			c1.92,0.711,3.029,1.728,3.029,4.366c0,3.248-1.717,5.482-7.476,5.482H0L0.001,0.306L0.001,0.306z M11.416,7.717
			c1.816,0,2.523-0.304,2.523-1.625c0-1.116-0.505-1.625-2.424-1.625H5.354v3.351h6.062V7.717L11.416,7.717z M5.255,15.434h6.361
			c2.021,0,2.628-0.711,2.628-1.931c0-1.319-0.605-1.929-2.729-1.929H5.254L5.255,15.434L5.255,15.434z"/>
		<path d="M25.555,0.306h17.576v3.756H30.909v3.654H40.1v3.757h-9.191v4.062h12.729v3.857h-17.98V0.305L25.555,0.306L25.555,0.306z"
			/>
		<path d="M49.698,0.306h5.253v15.229h10.706v3.957h-15.96L49.698,0.306L49.698,0.306z"/>
		<path d="M69.698,16.245l3.436-2.945c1.414,1.523,3.736,2.642,6.869,2.642c2.827,0,4.039-0.508,4.039-1.827
			s-1.012-1.625-4.747-2.03c-4.04-0.508-8.89-1.318-8.89-6.092c0-4.062,3.534-5.99,8.787-5.99c4.547,0,7.272,1.117,9.396,3.249
			l-3.231,2.944c-0.909-1.117-2.829-2.335-5.96-2.335c-2.828,0-3.938,0.507-3.938,1.726c0,1.32,1.11,1.625,4.948,2.031
			c4.144,0.507,8.788,1.522,8.788,6.191c0,4.164-2.827,6.191-9.091,6.191C74.951,19.898,71.922,18.479,69.698,16.245z"/>
		<path d="M93.336,4.265V0.306h18.079v3.959h-6.263v15.228h-5.151V4.265H93.336z"/>
		<path d="M118.284,19.492h-5.052l7.677-19.187h6.265l7.676,19.187h-5.555l-1.312-3.553h-8.386L118.284,19.492z M123.737,4.874
			l-2.727,7.312h5.557L123.737,4.874z"/>
		<path d="M140.202,0.306h17.476v3.756h-12.222v4.163h9.696v3.755h-9.696v7.412h-5.254V0.306L140.202,0.306z"/>
		<path d="M163.84,0.306h17.476v3.756h-12.222v4.163h9.694v3.755h-9.694v7.412h-5.254V0.306L163.84,0.306z"/>
	</g>
</svg>
