<?xml version="1.0" standalone="no"?>
<!DOCTYPE svg PUBLIC "-//W3C//DTD SVG 20010904//EN"
 "http://www.w3.org/TR/2001/REC-SVG-20010904/DTD/svg10.dtd">
<svg version="1.0" xmlns="http://www.w3.org/2000/svg"
 width="840.000000pt" height="840.000000pt" viewBox="0 0 840.000000 840.000000"
 preserveAspectRatio="xMidYMid meet">
<metadata>
Created by potrace 1.11, written by Peter Selinger 2001-2013
</metadata>
<g transform="translate(0.000000,840.000000) scale(0.100000,-0.100000)"
fill="#000000" stroke="none">
<path d="M720 5926 l0 -43 123 -5 c149 -7 219 -30 282 -92 51 -52 72 -120 85
-279 13 -149 12 -2369 0 -2517 -13 -156 -31 -211 -86 -266 -70 -70 -117 -86
-269 -93 l-130 -6 -3 -48 -3 -48 913 4 c990 4 992 4 1255 63 537 120 915 413
1133 877 166 354 212 807 126 1217 -99 468 -380 863 -755 1058 -178 94 -355
146 -611 182 -261 36 -388 40 -1231 40 l-829 0 0 -44z m1754 -166 c172 -25
365 -98 516 -198 106 -69 299 -260 363 -359 171 -263 257 -587 257 -962 0
-461 -133 -841 -386 -1110 -132 -140 -249 -227 -404 -300 -282 -132 -607 -154
-1019 -70 -51 10 -95 19 -97 19 -2 0 -4 659 -4 1464 l0 1463 103 22 c92 19
174 32 277 45 57 7 309 -2 394 -14z"/>
<path d="M4800 5926 l0 -43 129 -5 c112 -5 136 -9 190 -33 115 -52 153 -120
172 -310 6 -64 9 -556 6 -1360 -3 -1164 -4 -1265 -21 -1327 -22 -84 -73 -146
-154 -184 -50 -25 -72 -29 -187 -34 l-130 -5 -3 -47 -3 -48 1335 0 1335 0 55
173 c166 523 238 758 235 761 -2 2 -21 7 -41 11 l-37 7 -33 -73 c-90 -205
-174 -336 -278 -439 -119 -117 -210 -163 -392 -197 -80 -15 -159 -18 -548 -18
-509 0 -518 1 -579 71 -58 66 -56 6 -56 1444 0 1248 1 1328 18 1383 44 144
217 227 475 227 l72 0 0 45 0 45 -780 0 -780 0 0 -44z"/>
</g>
</svg>
