<svg xmlns="http://www.w3.org/2000/svg" version="1.1" x="0px" y="0px" viewBox="0 0 509.998 89.884" enable-background="new 0 0 509.998 89.884" xml:space="preserve"><g><path fill="#762322" d="M162.399 1.191l28.538 74.083h11.076v15.801h-39.969V75.274h9.051l-5.256-14.372h-31.502l-5.308 14.4 h10.582v15.801H99.268V75.274H109.8l26.628-74.083H162.399z M138.427 45.577h22.321l-11.522-29.405L138.427 45.577z"/><polygon fill="#762322" points="221.3,1.2 221.3,16.8 234.7,16.8 234.7,75.3 221.2,75.3 221.2,91.1 299.8,91.1 299.8,61.6 283,61.6 283,75.3 253.4,75.3 253.4,16.8 266.8,16.8 266.8,1.2"/><polygon fill="#762322" points="322.2,1.2 322.2,16.8 335.6,16.8 335.6,75.3 322,75.3 322,91.1 400.6,91.1 400.6,61.6 383.9,61.6 383.9,75.3 354.3,75.3 354.3,16.8 367.6,16.8 367.6,1.2"/><polygon fill="#762322" points="408.3,1.2 408.3,16.9 420.3,16.9 449.8,60.5 449.8,75.3 436.5,75.3 436.5,91.1 481.9,91.1 481.9,75.3 468.3,75.3 468.3,60.4 497.2,17 510,17 510,1.2 467.4,1.2 467.4,16.9 477.3,16.9 459.9,44.9 441.6,16.9 451.3,16.9 451.3,1.2"/><path fill="#762322" d="M0 1.191c41.983 0 42 0 50.4 0c18.452 0 30.4 10.3 30.4 23 c0 13.497-7.841 19.591-15.795 21.197c8.57 1.4 19 7.7 19 21.221c0 13.565-9.986 24.505-26.576 24.5 c-14.532 0-57.392 0-57.392 0V75.274h13.414V16.923H0V1.191z M31.273 16.923v20.984c0 0 16.1 0 20.6 0 c7.56 0 10.394-5.716 10.394-10.974c0-4.616-4.088-10.011-11.395-10.011C43.563 16.9 31.3 16.9 31.3 16.923z M31.273 75.274c0 0 14.3 0 22 0c7.727 0 10.572-5.778 10.572-10.167c0-5.028-3.506-10.239-10.859-10.239 c-8.294 0-21.733 0-21.733 0V75.274z"/></g></svg>