<svg version="1.1" xmlns="http://www.w3.org/2000/svg" x="0px" y="0px"
	 viewBox="0 0 849.8 121.7" enable-background="new 0 0 849.8 121.7" xml:space="preserve">
<g>
	<path fill="#000000" d="M507.4,101.5c-8.9,7.5-20,11.5-32,11.5c-28.2,0-50.2-22.8-50.2-51.9c0-28.6,21.5-51.6,48.9-52.3
		c10.3,0.4,17.3,2.5,24.8,7.7v10h5.2V2.3H499v4.6c-7.7-3.1-15.6-4.6-23.5-4.6c-33.9,0-61.5,26.3-61.5,58.7
		c0,32.3,27.6,58.6,61.5,58.6c13.2,0,25.8-5,35.6-14.1l0.9-0.8l-3.6-3.9L507.4,101.5z"/>
	<polygon fill="#000000" points="357.9,9.2 363.1,9.2 344.3,56.6 320.6,9.2 325.6,9.2 325.6,3.9 303.3,3.9 303.3,9.2 308.4,9.2 
		336,65.6 336,112.8 328.9,112.8 328.9,118.1 355.7,118.1 355.7,112.8 347.7,112.8 347.7,65.8 370.3,9.2 375.3,9.2 375.3,3.9 
		357.9,3.9"/>
	<polygon fill="#000000" points="101.5,9.2 106.5,9.2 106.5,3.9 84.9,3.9 84.9,9.2 90.2,9.2 90.2,112.8 84.9,112.8 84.9,118.1 
		106.5,118.1 106.5,112.8 101.5,112.8"/>
	<polygon fill="#000000" points="253.4,63.7 227.8,3.9 214.4,3.9 214.4,9.2 220.1,9.2 220.1,112.8 214.4,112.8 214.4,118.1 
		232.2,118.1 232.2,112.8 227.1,112.8 227.1,28.1 251.6,86.3 275.9,25.1 275.9,112.8 270.3,112.8 270.3,118.1 292.3,118.1 
		292.3,112.8 287.3,112.8 287.3,9.2 292.3,9.2 292.3,3.9 277.2,3.9"/>
	<polygon fill="#000000" points="161.2,63.7 135.6,3.9 122.2,3.9 122.2,9.2 127.9,9.2 127.9,112.8 122.2,112.8 122.2,118.1 
		140,118.1 140,112.8 134.9,112.8 134.9,28.1 159.3,86.3 183.7,25.1 183.7,112.8 179.2,112.9 178.6,113 178.1,113.8 178.1,118.1 
		200,118.1 200,112.8 195.1,112.8 195.1,9.2 200,9.2 200,3.9 185,3.9"/>
	<polygon fill="#000000" points="582,9.2 587.1,9.2 587.1,4 564.9,3.9 564.9,9.2 570.5,9.2 570.5,34.2 537.1,34.2 537.1,9.2 
		542.1,9.2 542.1,3.9 520.1,3.9 520.1,9.2 525.6,9.2 525.6,112.8 520.1,112.8 520.1,118.1 542.1,118.1 542.1,112.8 537.1,112.8 
		537.1,40.5 570.5,40.5 570.5,112.8 564.9,112.8 564.9,118.1 587.2,118.1 587.2,112.8 582,112.8"/>
	<path fill="#000000" d="M47.1,9.1h5.6v79.5c0,19.2-12.9,24.6-19.7,24.7c-6.3-0.1-18.6-5-19.7-22.3l-0.1-1.3L2.1,91.4l0.2,1.2
		c0.7,5,2.2,9.4,4.7,13.6c3.2,5.4,12.8,13.5,25.9,13.5c16.2,0,24.4-11.2,25.9-13.4c5-7.8,5.4-17,5.4-27.4l0-69.6h5V3.9H47.1V9.1z"/>
	<path fill="#000000" d="M655,2.3c-33.9,0-61.5,26.3-61.5,58.7c0,32.3,27.6,58.7,61.5,58.7c33.9,0,61.5-26.3,61.5-58.7
		C716.5,28.6,688.9,2.3,655,2.3z M654.7,113c-28,0-49.9-22.8-49.9-52c0-14,5.2-27.1,14.6-36.9c9.4-9.8,22.1-15.2,35.6-15.2
		c27.7,0,50.3,23.6,50.3,52.6C705.2,90.3,683,113,654.7,113z"/>
	<path fill="#000000" d="M786.2,2.3c-33.9,0-61.5,26.3-61.5,58.7c0,32.3,27.6,58.7,61.5,58.7c33.9,0,61.5-26.3,61.5-58.7
		C847.7,28.6,820.1,2.3,786.2,2.3z M786.5,113C758.6,112.8,736,89.5,736,61c0-14,5.2-27.1,14.6-36.9c9.4-9.8,22.1-15.2,35.6-15.2
		c27.7,0,50.3,23.6,50.3,52.6C836.5,90.2,814.5,112.8,786.5,113z"/>
</g>
</svg>
